# xmcd CD database file
#
# Track frame offsets:
#	150
#	21365
#	39699
#	55510
#	71872
#	93632
#	109172
#	128082
#	143427
#	162415
#	184922
#	202622
#	220375
#	236860
#	251237
#	268482
#	287555
#	308147
#
# Disc length: 4352 seconds
#
# Revision: 12
# Processed by: cddbd v1.5.2PL0 Copyright (c) Steve Scherf et al.
# Submitted via: jetAudio 7
#
DISCID=1610fe12
DTITLE=Various Artist - All My Loving [CD2]
DYEAR=2003
DGENRE=Pop
TTITLE0=陳百強 - 有了你
TTITLE1=蘇芮 - 憑著愛
TTITLE2=許冠傑 - 難忘你 
TTITLE3=葉德嫻 - 赤子
TTITLE4=蔡齡齡 - 細水長流
TTITLE5=林子祥  - 最愛是誰 
TTITLE6=劉雅麗  - 我和春天有個約會
TTITLE7=許冠傑 - 印象 
TTITLE8=鄧麗君  - 我只在乎你 
TTITLE9=陳慧嫻  - 千千闕歌 
TTITLE10=譚詠麟 - 愛的根源
TTITLE11=關淑怡 - 一切也願意 
TTITLE12=黎明  - 情深說話未曾講
TTITLE13=林憶蓮 - 願 
TTITLE14=袁鳳英 - 天若有情 
TTITLE15=劉德華 - 愛不完
TTITLE16=Beyond - 喜歡你
TTITLE17=黎明 - 及時擁抱 
EXTD=·R±¡ºq¦±,¸s¬P,¦s¬°·R Memory. YEAR: 2003
EXTT0=
EXTT1=
EXTT2=
EXTT3=
EXTT4=
EXTT5=
EXTT6=
EXTT7=
EXTT8=
EXTT9=
EXTT10=
EXTT11=
EXTT12=
EXTT13=
EXTT14=
EXTT15=
EXTT16=
EXTT17=
PLAYORDER=
